<?xml version="1.0" encoding="utf-8"?>
<!-- Generator: Adobe Illustrator 23.1.1, SVG Export Plug-In . SVG Version: 6.00 Build 0)  -->
<svg version="1.1" id="レイヤー_1" xmlns="http://www.w3.org/2000/svg" xmlns:xlink="http://www.w3.org/1999/xlink" x="0px"
	 y="0px" viewBox="0 0 169.8 94.8" style="enable-background:new 0 0 169.8 94.8;" xml:space="preserve">
<style type="text/css">
	.st0{fill:#050505;}
</style>
<g>
	<path class="st0" d="M74.4,63.7c-0.8-1-2-1.4-3.5-1.4h-5.1l-4.5,32.4h3.2l1.3-9.7h1.8c1.5,0,2.8-0.5,3.9-1.4s1.7-2.2,2-3.9l1.7-12
		C75.5,66,75.2,64.7,74.4,63.7L74.4,63.7z M70.3,79.6c-0.2,1.4-0.9,2.1-2.1,2.1h-1.8l2.3-16.2h1.8c1.2,0,1.8,0.7,1.6,2.1L70.3,79.6z
		 M90.2,61.8h3l-4.6,32.8h-3L90.2,61.8z"/>
	<g>
		<path id="B" class="st0" d="M105.8,72.7l0.4-3h1.8l1.9-5.1h1.8l-0.7,5.1h3l-0.4,3h-3L108.3,90c-0.2,1.1,0.2,1.6,1.2,1.6h1.6
			l-0.4,3H109c-1.4,0-2.4-0.4-3.1-1.2s-0.9-1.9-0.7-3.4l2.4-17.3L105.8,72.7L105.8,72.7z"/>
	</g>
	<g>
		<path class="st0" d="M115.3,72.7l0.4-3h1.9l1.9-5.1h1.9l-0.7,5.1h3l-0.4,3h-3L117.8,90c-0.2,1.1,0.2,1.6,1.2,1.6h1.6l-0.4,3h-1.6
			c-1.4,0-2.4-0.4-3.1-1.2c-0.7-0.8-0.9-1.9-0.6-3.4l2.4-17.3L115.3,72.7L115.3,72.7z"/>
	</g>
	<path class="st0" d="M136,91l0.2-1.7h1.4l1.8-12.4h-0.1c-0.1,0.1-0.3,0.2-0.4,0.2c-0.1,0.1-0.3,0.1-0.5,0.2
		c-0.2,0.1-0.5,0.1-0.7,0.1l0.2-1.2c0.6,0,1.1-0.2,1.6-0.7c0.5-0.4,0.8-1,0.9-1.7h1.4l-2.2,15.5h1.4l-0.2,1.7L136,91L136,91z
		 M149.4,76.5c-0.1,1-0.4,1.9-0.7,2.7s-0.6,1.5-1,2.1l-1.2,1.8l-1.1,1.8c-0.4,0.6-0.7,1.3-1,2c-0.3,0.7-0.5,1.5-0.6,2.4h3.7
		l-0.2,1.7h-5.4l0.2-1.7c0.1-1,0.4-1.9,0.7-2.7s0.6-1.5,1-2.1l1.2-1.8l1.1-1.8c0.4-0.6,0.7-1.3,1-2c0.3-0.7,0.5-1.5,0.6-2.4
		c0.1-0.7-0.2-1.1-0.8-1.1c-0.7,0-1,0.4-1.1,1.1l-0.4,2.9l-1.7,0l0.4-2.9c0.1-0.8,0.5-1.5,1.1-2c0.6-0.5,1.2-0.8,2.1-0.7
		c0.8,0,1.4,0.2,1.9,0.8C149.4,75,149.6,75.7,149.4,76.5L149.4,76.5z M164.2,76.6c-0.1,1-0.4,1.9-0.7,2.7s-0.6,1.5-1,2.1l-1.2,1.8
		l-1.1,1.8c-0.4,0.6-0.7,1.3-1,2c-0.3,0.7-0.5,1.5-0.6,2.4l3.7,0l-0.2,1.7l-5.4,0l0.2-1.7c0.1-1,0.4-1.9,0.7-2.7s0.6-1.5,1-2.1
		l1.2-1.8l1.1-1.8c0.4-0.6,0.7-1.3,1-2c0.3-0.7,0.5-1.5,0.6-2.4c0.1-0.7-0.2-1.1-0.8-1.1c-0.7,0-1,0.4-1.1,1.1l-0.4,2.9l-1.7,0
		l0.4-2.9c0.1-0.8,0.5-1.5,1.1-2c0.6-0.5,1.2-0.8,2.1-0.7s1.4,0.2,1.9,0.8C164.2,75.1,164.4,75.7,164.2,76.6L164.2,76.6z
		 M135.4,94.8l0.2-1.7h26.1l-0.2,1.7H135.4z M138.7,71.7l0.2-1.7H165l-0.2,1.7H138.7z M48.5,2.5v38.3H0v48.7c0,2.8,2.3,5.2,5.1,5.2
		c0,0,0,0,0,0h49.8V56h48.5V2.5C103.4,2.5,48.5,2.5,48.5,2.5z M48.5,88.3H8.8c-1.3,0-2.3-1-2.3-2.3V47.3h42V88.3L48.5,88.3z
		 M96.9,24.8v24.8h-42V9h42L96.9,24.8L96.9,24.8z M139.7,0c-16.6,0-30.1,13.5-30.1,30.1s13.5,30.1,30.1,30.1s30.1-13.5,30.1-30.1
		S156.3,0,139.7,0z M139.7,53.7c-13,0-23.7-10.6-23.7-23.7s10.6-23.7,23.7-23.7s23.7,10.6,23.7,23.7S152.7,53.7,139.7,53.7z
		 M133.3,70.7c-0.6-0.7-1.6-1.1-2.9-1.1s-2.4,0.4-3.2,1.1c-0.8,0.8-1.4,1.8-1.6,3.3l-2.4,16.3c-0.2,1.4,0,2.5,0.6,3.3
		s1.6,1.1,2.9,1.1c1.3,0,2.4-0.4,3.2-1.2c0.9-0.8,1.4-1.9,1.6-3.4l0.8-5.3h-3l-0.8,5.3c-0.1,1.1-0.6,1.6-1.3,1.6s-1.1-0.5-1-1.6
		l1.1-7.6h5.3l1.3-8.6C134.2,72.5,134,71.4,133.3,70.7L133.3,70.7z M130.1,78.9l-0.1,0.5h-2.3l0.9-5.4c0.2-0.9,0.6-1.4,1.4-1.4
		c0.3,0,0.6,0.1,0.8,0.3s0.2,0.6,0.1,1.1l-0.4,2.6L130.1,78.9L130.1,78.9z M156.4,74.5c-0.4-0.5-1.1-0.7-1.9-0.7s-1.5,0.2-2.1,0.7
		s-0.9,1.2-1.1,2l-1.8,11.8c-0.1,0.8,0,1.5,0.4,2c0.4,0.5,1,0.7,1.8,0.7s1.5-0.2,2.1-0.7s0.9-1.2,1.1-2l0.2-1.5l1.5-10.4
		C156.9,75.7,156.8,75,156.4,74.5z M153.3,88.3c-0.1,0.7-0.5,1.1-1.2,1.1c-0.3,0-0.5-0.1-0.7-0.3s-0.2-0.4-0.1-0.8l1.8-11.7
		c0.1-0.7,0.5-1.1,1.1-1.1s0.9,0.4,0.8,1.1l-0.2,1.3L153.3,88.3L153.3,88.3z M102.8,70.7c-0.6-0.7-1.6-1.1-2.9-1.1s-2.4,0.4-3.2,1.1
		c-0.8,0.8-1.4,1.8-1.6,3.3l-2.4,16.3c-0.2,1.4,0,2.5,0.6,3.3s1.6,1.1,2.9,1.1s2.4-0.4,3.2-1.2c0.8-0.8,1.4-1.9,1.6-3.4l0.8-5.3h-3
		L98,90.1c-0.1,1.1-0.6,1.6-1.3,1.6s-1.1-0.5-1-1.6l1.1-7.6h5.3l1.3-8.6C103.6,72.5,103.4,71.4,102.8,70.7L102.8,70.7z M100.2,75.3
		l-0.7,4.2h-2.3l0.9-5.4c0.2-0.9,0.7-1.4,1.4-1.4c0.3,0,0.6,0.1,0.8,0.3s0.2,0.6,0.1,1.1L100.2,75.3L100.2,75.3z M84.5,70.8
		c-0.6-0.8-1.6-1.2-2.9-1.2c-1.2,0-2.2,0.3-3,1.1s-1.4,1.7-1.6,3.1L76.5,77h3l0.5-3.1c0.1-0.5,0.2-0.8,0.5-1
		c0.2-0.2,0.4-0.3,0.7-0.3c0.3,0,0.6,0.1,0.8,0.3s0.2,0.6,0.1,1l-0.9,5.2h-1.2c-1.3,0-2.4,0.4-3.2,1.2s-1.4,1.9-1.6,3.4L74.4,90
		c-0.2,1.5,0,2.7,0.5,3.4s1.3,1.2,2.1,1.2c0.3,0,0.7-0.1,0.9-0.1c0.3-0.1,0.5-0.2,0.7-0.4c0.2-0.1,0.5-0.3,0.7-0.5h0.2l-0.1,1h2.8
		l2.9-20.5C85.3,72.6,85.2,71.5,84.5,70.8L84.5,70.8z M80.6,83.6l-0.9,7.2c-0.1,0.3-0.3,0.5-0.4,0.7c-0.1,0.2-0.3,0.4-0.5,0.5
		c-0.2,0.1-0.4,0.2-0.7,0.2c-0.2,0-0.4-0.1-0.6-0.4c-0.2-0.3-0.2-0.7-0.1-1.3l0.9-6.6c0.2-1.1,0.7-1.7,1.4-1.7h1.2L80.6,83.6
		L80.6,83.6z"/>
</g>
</svg>
