<?xml version="1.0" encoding="utf-8"?>
<!-- Generator: Adobe Illustrator 23.1.1, SVG Export Plug-In . SVG Version: 6.00 Build 0)  -->
<svg version="1.1" id="レイヤー_1" xmlns="http://www.w3.org/2000/svg" xmlns:xlink="http://www.w3.org/1999/xlink" x="0px"
	 y="0px" viewBox="0 0 566.9 126" style="enable-background:new 0 0 566.9 126;" xml:space="preserve">
<style type="text/css">
	.st0{fill:none;}
	.st1{fill-rule:evenodd;clip-rule:evenodd;fill:#333333;}
	.st2{fill-rule:evenodd;clip-rule:evenodd;fill:#FFFFFF;}
	.st3{fill:#FFFFFF;}
</style>
<rect id="badge.-small.-dark" class="st0" width="566.9" height="126"/>
<path class="st1" d="M566.9,11.3c0-6.3-5.1-11.3-11.3-11.3H11.3C5.1,0,0,5.1,0,11.3v103.3c0,6.3,5.1,11.3,11.3,11.3h544.3
	c6.3,0,11.3-5.1,11.3-11.3C566.9,114.6,566.9,11.3,566.9,11.3z"/>
<path class="st2" d="M45.6,102.3h-2.2c-0.6,0-1.1-0.5-1.1-1.1v-7h-1.5c-5.2,0-9.4-4.2-9.4-9.4v-1.5h-7c-0.6,0-1.1-0.5-1.1-1.1v-2.2
	c0-0.6,0.5-1.1,1.1-1.1h7v-4.8h-7c-0.6,0-1.1-0.5-1.1-1.1V71c0-0.6,0.5-1.1,1.1-1.1h7v-4.8h-7c-0.6,0-1.1-0.5-1.1-1.1v-2.2
	c0-0.6,0.5-1.1,1.1-1.1h7v-4.8h-7c-0.6,0-1.1-0.5-1.1-1.1v-2.2c0-0.6,0.5-1.1,1.1-1.1h7V47h-7c-0.6,0-1.1-0.5-1.1-1.1v-2.2
	c0-0.6,0.5-1.1,1.1-1.1h7v-1.5c0-5.2,4.2-9.4,9.4-9.4h1.5v-7c0-0.6,0.5-1.1,1.1-1.1h2.2c0.6,0,1.1,0.5,1.1,1.1v7h4.8v-7
	c0-0.6,0.5-1.1,1.1-1.1h2.2c0.6,0,1.1,0.5,1.1,1.1v7h4.8v-7c0-0.6,0.5-1.1,1.1-1.1h2.2c0.6,0,1.1,0.5,1.1,1.1v7h4.8v-7
	c0-0.6,0.5-1.1,1.1-1.1h2.2c0.6,0,1.1,0.5,1.1,1.1v7h4.8v-7c0-0.6,0.5-1.1,1.1-1.1H82c0.6,0,1.1,0.5,1.1,1.1v7h1.5
	c5.2,0,9.4,4.2,9.4,9.4v1.5h7c0.6,0,1.1,0.5,1.1,1.1v2.2c0,0.6-0.5,1.1-1.1,1.1h-7v4.8h7c0.6,0,1.1,0.5,1.1,1.1V55
	c0,0.6-0.5,1.1-1.1,1.1h-7v4.8h7c0.6,0,1.1,0.5,1.1,1.1v2.2c0,0.6-0.5,1.1-1.1,1.1h-7v4.8h7c0.6,0,1.1,0.5,1.1,1.1v2.2
	c0,0.6-0.5,1.1-1.1,1.1h-7V79h7c0.6,0,1.1,0.5,1.1,1.1v2.2c0,0.6-0.5,1.1-1.1,1.1h-7v1.5c0,5.2-4.2,9.4-9.4,9.4h-1.5v7
	c0,0.6-0.5,1.1-1.1,1.1h-2.2c-0.6,0-1.1-0.5-1.1-1.1v-7H74v7c0,0.6-0.5,1.1-1.1,1.1h-2.2c-0.6,0-1.1-0.5-1.1-1.1v-7h-4.8v7
	c0,0.6-0.5,1.1-1.1,1.1h-2.2c-0.6,0-1.1-0.5-1.1-1.1v-7h-4.8v7c0,0.6-0.5,1.1-1.1,1.1h-2.2c-0.6,0-1.1-0.5-1.1-1.1v-7h-4.8v7
	C46.7,101.8,46.2,102.3,45.6,102.3z M80.5,59.4c0,2.3-0.4,4.3-1.1,6.1c-0.7,1.8-1.7,3.3-3.1,4.6c-1.3,1.3-2.9,2.3-4.8,3
	c-1.9,0.7-4,1.1-6.4,1.1v6.9c0,0.2,0,0.3-0.1,0.4c-0.1,0.1-0.2,0.2-0.4,0.3C64.5,82,64.2,82,63.9,82c-0.3,0-0.7,0.1-1.2,0.1
	s-0.9,0-1.2-0.1c-0.3,0-0.6-0.1-0.8-0.2c-0.2-0.1-0.3-0.2-0.4-0.3c-0.1-0.1-0.1-0.3-0.1-0.4v-6.9c-2.4-0.1-4.6-0.4-6.5-1
	c-1.9-0.6-3.5-1.6-4.8-2.8c-1.3-1.2-2.3-2.7-3-4.4c-0.7-1.8-1-3.8-1-6.1V45.1c0-0.1,0-0.3,0.1-0.4c0.1-0.1,0.2-0.2,0.4-0.3
	c0.2-0.1,0.4-0.1,0.8-0.2c0.3,0,0.7-0.1,1.2-0.1c0.5,0,0.9,0,1.2,0.1c0.3,0,0.6,0.1,0.8,0.2c0.2,0.1,0.3,0.2,0.4,0.3
	c0.1,0.1,0.1,0.2,0.1,0.4v14.4c0,1.6,0.2,3,0.6,4.3c0.4,1.3,1.1,2.4,1.9,3.3c0.9,0.9,1.9,1.6,3.2,2.1c1.3,0.5,2.8,0.8,4.6,0.8V45.1
	c0-0.1,0-0.3,0.1-0.4c0.1-0.1,0.2-0.2,0.4-0.3c0.2-0.1,0.5-0.1,0.8-0.2c0.3,0,0.7-0.1,1.1-0.1c0.5,0,0.9,0,1.2,0.1
	c0.3,0,0.6,0.1,0.8,0.2c0.2,0.1,0.3,0.2,0.4,0.3c0.1,0.1,0.1,0.2,0.1,0.4V70c1.7,0,3.3-0.3,4.6-0.8c1.3-0.5,2.4-1.2,3.2-2.1
	c0.9-0.9,1.5-2,1.9-3.2c0.4-1.3,0.7-2.7,0.7-4.2V45.1c0-0.1,0-0.3,0.1-0.4c0.1-0.1,0.2-0.2,0.4-0.3c0.2-0.1,0.4-0.1,0.8-0.2
	c0.3,0,0.7-0.1,1.2-0.1c0.5,0,0.9,0,1.2,0.1c0.3,0,0.6,0.1,0.8,0.2c0.2,0.1,0.3,0.2,0.4,0.3c0.1,0.1,0.1,0.2,0.1,0.4V59.4L80.5,59.4
	z"/>
<path class="st3" d="M152.3,55.4c0,1.9-0.3,3.6-0.9,5.1c-0.6,1.5-1.5,2.8-2.6,3.9c-1.1,1.1-2.6,1.9-4.2,2.5c-1.7,0.6-3.7,0.9-6,0.9
	h-4.3v13.5c0,0.2,0,0.3-0.1,0.4c-0.1,0.1-0.2,0.2-0.4,0.3c-0.2,0.1-0.4,0.1-0.8,0.2c-0.3,0-0.7,0.1-1.2,0.1c-0.5,0-0.9,0-1.2-0.1
	c-0.3,0-0.6-0.1-0.8-0.2s-0.3-0.2-0.4-0.3c-0.1-0.1-0.1-0.3-0.1-0.4V46.6c0-0.8,0.2-1.3,0.6-1.7c0.4-0.3,0.9-0.5,1.4-0.5h8
	c0.8,0,1.6,0,2.3,0.1s1.6,0.2,2.6,0.4c1,0.2,2,0.6,3.1,1.2c1.1,0.6,1.9,1.4,2.7,2.2c0.7,0.9,1.3,1.9,1.7,3.1
	C152.1,52.7,152.3,54,152.3,55.4L152.3,55.4z M147,55.9c0-1.5-0.3-2.8-0.9-3.8c-0.6-1-1.3-1.8-2.1-2.3c-0.8-0.5-1.7-0.8-2.6-1
	c-0.9-0.1-1.8-0.2-2.6-0.2h-4.6v15h4.5c1.5,0,2.8-0.2,3.7-0.6c1-0.4,1.8-0.9,2.5-1.6c0.7-0.7,1.2-1.5,1.5-2.5
	C146.9,58,147,57,147,55.9z"/>
<path class="st3" d="M182.4,67.9c0,2.1-0.3,4.1-0.8,5.9c-0.6,1.8-1.4,3.3-2.5,4.6c-1.1,1.3-2.5,2.3-4.2,3s-3.6,1.1-5.8,1.1
	c-2.1,0-4-0.3-5.6-1c-1.6-0.6-2.9-1.6-4-2.8c-1.1-1.2-1.9-2.7-2.4-4.4c-0.5-1.7-0.8-3.7-0.8-5.9c0-2.1,0.3-4.1,0.8-5.9
	c0.5-1.8,1.4-3.3,2.5-4.6c1.1-1.3,2.5-2.3,4.2-3c1.7-0.7,3.6-1.1,5.8-1.1c2.1,0,4,0.3,5.6,1c1.6,0.6,2.9,1.6,4,2.8
	c1.1,1.2,1.9,2.7,2.4,4.4C182.1,63.8,182.4,65.7,182.4,67.9L182.4,67.9z M177.4,68.2c0-1.4-0.1-2.7-0.4-4c-0.3-1.3-0.7-2.4-1.3-3.3
	c-0.6-0.9-1.4-1.7-2.5-2.2c-1-0.5-2.3-0.8-3.9-0.8c-1.4,0-2.6,0.3-3.7,0.8c-1,0.5-1.9,1.2-2.5,2.1c-0.7,0.9-1.2,2-1.5,3.3
	c-0.3,1.3-0.5,2.6-0.5,4.1c0,1.4,0.1,2.8,0.4,4c0.3,1.3,0.7,2.4,1.3,3.3c0.6,0.9,1.4,1.7,2.5,2.2c1,0.6,2.3,0.8,3.9,0.8
	c1.4,0,2.6-0.3,3.7-0.8c1-0.5,1.9-1.2,2.5-2.1c0.7-0.9,1.1-2,1.5-3.2C177.3,71.1,177.4,69.7,177.4,68.2z"/>
<path class="st3" d="M225.6,55.1c0,0.1,0,0.3-0.1,0.5c0,0.2-0.1,0.4-0.2,0.7l-7.7,24.8c-0.1,0.2-0.1,0.4-0.3,0.5
	c-0.1,0.1-0.3,0.2-0.5,0.3c-0.2,0.1-0.5,0.1-0.9,0.2c-0.4,0-0.9,0-1.4,0c-0.6,0-1.1,0-1.5-0.1c-0.4,0-0.7-0.1-1-0.2
	c-0.2-0.1-0.4-0.2-0.5-0.3c-0.1-0.1-0.2-0.3-0.3-0.5l-5.5-18.9l-0.1-0.3l-0.1,0.3l-5.1,18.9c-0.1,0.2-0.1,0.4-0.3,0.5
	c-0.1,0.1-0.3,0.2-0.6,0.3c-0.3,0.1-0.6,0.1-1,0.2c-0.4,0-0.9,0-1.5,0c-0.6,0-1.1,0-1.5-0.1c-0.4,0-0.7-0.1-0.9-0.2
	c-0.2-0.1-0.4-0.2-0.5-0.3c-0.1-0.1-0.2-0.3-0.3-0.5l-7.6-24.8c-0.1-0.3-0.2-0.5-0.2-0.7c0-0.2-0.1-0.4-0.1-0.5c0-0.2,0-0.3,0.1-0.4
	c0.1-0.1,0.2-0.2,0.4-0.3c0.2-0.1,0.4-0.1,0.7-0.1c0.3,0,0.7,0,1.1,0c0.5,0,1,0,1.3,0c0.3,0,0.6,0.1,0.8,0.1
	c0.2,0.1,0.3,0.2,0.4,0.3c0.1,0.1,0.1,0.3,0.2,0.4l6.3,21.5l0.1,0.3l0.1-0.3l5.8-21.5c0-0.2,0.1-0.3,0.2-0.4s0.2-0.2,0.4-0.3
	c0.2-0.1,0.4-0.1,0.7-0.1c0.3,0,0.7,0,1.2,0c0.5,0,0.8,0,1.1,0s0.5,0.1,0.7,0.1c0.2,0.1,0.3,0.2,0.4,0.3s0.1,0.3,0.2,0.4l6.2,21.5
	l0.1,0.3l0-0.3l6.2-21.5c0-0.2,0.1-0.3,0.2-0.4s0.2-0.2,0.4-0.3c0.2-0.1,0.4-0.1,0.8-0.1c0.3,0,0.7,0,1.2,0c0.5,0,0.8,0,1.1,0
	c0.3,0,0.5,0.1,0.7,0.1c0.2,0.1,0.3,0.2,0.3,0.3C225.6,54.8,225.6,54.9,225.6,55.1L225.6,55.1z"/>
<path class="st3" d="M253.3,67.1c0,0.8-0.2,1.3-0.6,1.6c-0.4,0.3-0.8,0.5-1.3,0.5h-17.2c0,1.4,0.1,2.8,0.4,3.9
	c0.3,1.2,0.8,2.2,1.5,3c0.7,0.8,1.6,1.5,2.6,1.9c1.1,0.4,2.4,0.7,4,0.7c1.2,0,2.3-0.1,3.3-0.3c1-0.2,1.8-0.4,2.5-0.7
	c0.7-0.3,1.3-0.5,1.7-0.7c0.5-0.2,0.8-0.3,1-0.3c0.1,0,0.3,0,0.4,0.1c0.1,0.1,0.2,0.2,0.2,0.3c0.1,0.1,0.1,0.3,0.1,0.6
	c0,0.2,0,0.5,0,0.9c0,0.3,0,0.5,0,0.7c0,0.2,0,0.3-0.1,0.5c0,0.1-0.1,0.3-0.1,0.4c-0.1,0.1-0.2,0.2-0.3,0.3
	c-0.1,0.1-0.4,0.3-0.9,0.5c-0.5,0.2-1.2,0.5-2,0.7c-0.8,0.2-1.8,0.4-2.9,0.6c-1.1,0.2-2.3,0.3-3.5,0.3c-2.1,0-4-0.3-5.6-0.9
	c-1.6-0.6-3-1.5-4.1-2.7c-1.1-1.2-1.9-2.7-2.5-4.4c-0.6-1.8-0.8-3.8-0.8-6.2c0-2.2,0.3-4.3,0.9-6c0.6-1.8,1.4-3.3,2.5-4.5
	c1.1-1.2,2.4-2.2,4-2.9c1.5-0.7,3.3-1,5.2-1c2,0,3.8,0.3,5.2,1c1.4,0.7,2.6,1.5,3.5,2.6c0.9,1.1,1.6,2.4,2,3.9
	c0.4,1.5,0.7,3.1,0.7,4.8L253.3,67.1L253.3,67.1z M248.5,65.6c0.1-2.5-0.5-4.5-1.7-5.9c-1.2-1.4-2.9-2.1-5.2-2.1
	c-1.2,0-2.2,0.2-3.1,0.7c-0.9,0.4-1.6,1-2.2,1.8c-0.6,0.7-1.1,1.6-1.4,2.6c-0.3,1-0.5,2-0.6,3.1H248.5z"/>
<path class="st3" d="M275.8,56.9c0,0.4,0,0.8,0,1.1c0,0.3-0.1,0.5-0.1,0.7c-0.1,0.2-0.1,0.3-0.2,0.4c-0.1,0.1-0.2,0.1-0.4,0.1
	c-0.2,0-0.3,0-0.6-0.1c-0.2-0.1-0.5-0.2-0.8-0.3c-0.3-0.1-0.6-0.2-0.9-0.2c-0.3-0.1-0.7-0.1-1.1-0.1c-0.5,0-1,0.1-1.4,0.3
	c-0.5,0.2-1,0.5-1.5,1s-1,1-1.6,1.8c-0.6,0.7-1.2,1.6-1.9,2.7v17.1c0,0.2,0,0.3-0.1,0.4c-0.1,0.1-0.2,0.2-0.4,0.3
	c-0.2,0.1-0.4,0.1-0.7,0.2c-0.3,0-0.7,0.1-1.2,0.1c-0.5,0-0.8,0-1.2-0.1c-0.3,0-0.6-0.1-0.7-0.2c-0.2-0.1-0.3-0.2-0.4-0.3
	c-0.1-0.1-0.1-0.2-0.1-0.4V55.2c0-0.2,0-0.3,0.1-0.4c0.1-0.1,0.2-0.2,0.3-0.3s0.4-0.1,0.7-0.2c0.3,0,0.6,0,1.1,0c0.4,0,0.8,0,1.1,0
	s0.5,0.1,0.7,0.2s0.3,0.2,0.3,0.3c0.1,0.1,0.1,0.2,0.1,0.4v3.8c0.7-1,1.4-1.9,2-2.5c0.6-0.7,1.2-1.2,1.8-1.5
	c0.6-0.4,1.1-0.6,1.7-0.8s1.1-0.2,1.7-0.2c0.3,0,0.5,0,0.9,0c0.3,0,0.7,0.1,1,0.2c0.3,0.1,0.7,0.2,0.9,0.3c0.3,0.1,0.5,0.2,0.6,0.3
	c0.1,0.1,0.2,0.2,0.2,0.3c0,0.1,0.1,0.2,0.1,0.3c0,0.1,0,0.3,0.1,0.6C275.8,56.1,275.8,56.4,275.8,56.9L275.8,56.9z"/>
<path class="st3" d="M302.7,67.1c0,0.8-0.2,1.3-0.6,1.6c-0.4,0.3-0.8,0.5-1.3,0.5h-17.2c0,1.4,0.1,2.8,0.4,3.9
	c0.3,1.2,0.8,2.2,1.5,3c0.7,0.8,1.6,1.5,2.6,1.9c1.1,0.4,2.4,0.7,4,0.7c1.2,0,2.3-0.1,3.3-0.3c1-0.2,1.8-0.4,2.5-0.7
	c0.7-0.3,1.3-0.5,1.7-0.7c0.5-0.2,0.8-0.3,1-0.3c0.1,0,0.3,0,0.4,0.1c0.1,0.1,0.2,0.2,0.2,0.3c0.1,0.1,0.1,0.3,0.1,0.6
	c0,0.2,0,0.5,0,0.9c0,0.3,0,0.5,0,0.7c0,0.2,0,0.3-0.1,0.5c0,0.1-0.1,0.3-0.1,0.4c-0.1,0.1-0.2,0.2-0.3,0.3
	c-0.1,0.1-0.4,0.3-0.9,0.5c-0.5,0.2-1.2,0.5-2,0.7c-0.8,0.2-1.8,0.4-2.9,0.6s-2.3,0.3-3.5,0.3c-2.1,0-4-0.3-5.6-0.9
	c-1.6-0.6-3-1.5-4.1-2.7c-1.1-1.2-1.9-2.7-2.5-4.4c-0.6-1.8-0.8-3.8-0.8-6.2c0-2.2,0.3-4.3,0.9-6c0.6-1.8,1.4-3.3,2.5-4.5
	c1.1-1.2,2.4-2.2,4-2.9c1.5-0.7,3.3-1,5.2-1c2,0,3.8,0.3,5.2,1c1.4,0.7,2.6,1.5,3.5,2.6c0.9,1.1,1.6,2.4,2,3.9
	c0.4,1.5,0.7,3.1,0.7,4.8L302.7,67.1L302.7,67.1z M297.9,65.6c0.1-2.5-0.5-4.5-1.7-5.9c-1.2-1.4-2.9-2.1-5.2-2.1
	c-1.2,0-2.2,0.2-3.1,0.7c-0.9,0.4-1.6,1-2.2,1.8c-0.6,0.7-1.1,1.6-1.4,2.6c-0.3,1-0.5,2-0.6,3.1H297.9L297.9,65.6z"/>
<path class="st3" d="M332.3,81.2c0,0.2,0,0.3-0.1,0.4c-0.1,0.1-0.2,0.2-0.3,0.3c-0.2,0.1-0.4,0.1-0.7,0.2c-0.3,0-0.6,0.1-1,0.1
	c-0.4,0-0.7,0-1-0.1c-0.3,0-0.5-0.1-0.7-0.2c-0.2-0.1-0.3-0.2-0.4-0.3c-0.1-0.1-0.1-0.3-0.1-0.4v-3.4c-1.4,1.5-2.8,2.6-4.3,3.5
	s-3.1,1.2-4.8,1.2c-1.9,0-3.5-0.4-4.9-1.1c-1.4-0.7-2.4-1.7-3.3-3c-0.8-1.3-1.5-2.8-1.8-4.5c-0.4-1.7-0.6-3.5-0.6-5.4
	c0-2.2,0.2-4.3,0.7-6.1c0.5-1.8,1.2-3.3,2.1-4.6c0.9-1.3,2.1-2.3,3.5-2.9c1.4-0.7,3-1,4.8-1c1.5,0,2.9,0.3,4.2,1
	c1.3,0.7,2.5,1.6,3.7,2.9V42.6c0-0.1,0-0.3,0.1-0.4c0.1-0.1,0.2-0.2,0.4-0.3c0.2-0.1,0.4-0.1,0.7-0.2s0.7-0.1,1.1-0.1
	c0.5,0,0.9,0,1.2,0.1c0.3,0,0.6,0.1,0.7,0.2s0.3,0.2,0.4,0.3c0.1,0.1,0.1,0.3,0.1,0.4L332.3,81.2L332.3,81.2z M327.5,62.9
	c-1.3-1.6-2.5-2.8-3.7-3.7c-1.2-0.8-2.5-1.3-3.8-1.3c-1.2,0-2.2,0.3-3.1,0.9c-0.8,0.6-1.5,1.3-2.1,2.3c-0.5,0.9-0.9,2-1.2,3.2
	c-0.2,1.2-0.4,2.4-0.4,3.6c0,1.3,0.1,2.6,0.3,3.9c0.2,1.3,0.6,2.4,1.1,3.3c0.5,1,1.2,1.8,2,2.3c0.8,0.6,1.9,0.9,3.1,0.9
	c0.6,0,1.2-0.1,1.8-0.3c0.6-0.2,1.2-0.5,1.8-0.9c0.6-0.4,1.3-0.9,1.9-1.6c0.7-0.6,1.4-1.4,2.1-2.4V62.9z"/>
<path class="st3" d="M378.5,67.8c0,2.3-0.2,4.3-0.7,6.1c-0.5,1.8-1.2,3.3-2.2,4.6c-1,1.3-2.1,2.2-3.5,2.9s-3,1-4.8,1
	c-0.8,0-1.6-0.1-2.3-0.2c-0.7-0.2-1.4-0.4-2.1-0.8c-0.7-0.4-1.4-0.8-2-1.4c-0.7-0.6-1.4-1.2-2.1-2v3.2c0,0.2,0,0.3-0.1,0.4
	c-0.1,0.1-0.2,0.2-0.4,0.3c-0.2,0.1-0.4,0.1-0.7,0.2c-0.3,0-0.6,0.1-1,0.1c-0.4,0-0.7,0-1-0.1c-0.3,0-0.5-0.1-0.7-0.2
	c-0.2-0.1-0.3-0.2-0.3-0.3c-0.1-0.1-0.1-0.3-0.1-0.4V42.5c0-0.2,0-0.3,0.1-0.4c0.1-0.1,0.2-0.2,0.4-0.3c0.2-0.1,0.4-0.1,0.7-0.2
	c0.3,0,0.7-0.1,1.2-0.1c0.5,0,0.9,0,1.2,0.1c0.3,0,0.6,0.1,0.7,0.2c0.2,0.1,0.3,0.2,0.4,0.3c0.1,0.1,0.1,0.3,0.1,0.4v15.6
	c0.8-0.8,1.5-1.5,2.2-2c0.7-0.5,1.4-1,2.1-1.3c0.7-0.3,1.4-0.6,2.1-0.7c0.7-0.2,1.4-0.2,2.2-0.2c1.9,0,3.5,0.4,4.8,1.1
	c1.3,0.8,2.4,1.8,3.3,3c0.8,1.3,1.5,2.7,1.8,4.4C378.3,64.2,378.5,65.9,378.5,67.8L378.5,67.8z M373.5,68.4c0-1.3-0.1-2.6-0.3-3.9
	c-0.2-1.3-0.6-2.4-1.1-3.3c-0.5-1-1.2-1.7-2-2.3c-0.8-0.6-1.9-0.9-3.1-0.9c-0.6,0-1.2,0.1-1.8,0.3s-1.2,0.5-1.8,0.9
	c-0.6,0.4-1.3,0.9-1.9,1.6c-0.7,0.6-1.4,1.4-2.1,2.4v10.4c1.3,1.6,2.6,2.8,3.8,3.7c1.2,0.8,2.5,1.3,3.8,1.3c1.2,0,2.2-0.3,3.1-0.9
	c0.9-0.6,1.5-1.3,2.1-2.3c0.5-1,0.9-2,1.2-3.2C373.4,70.8,373.5,69.6,373.5,68.4L373.5,68.4z"/>
<path class="st3" d="M397.3,81.9l-3.5,9.6c-0.1,0.3-0.4,0.5-0.9,0.7c-0.5,0.2-1.2,0.2-2.2,0.2c-0.5,0-0.9,0-1.2-0.1
	c-0.3,0-0.5-0.1-0.7-0.2c-0.2-0.1-0.3-0.3-0.3-0.5c0-0.2,0-0.4,0.1-0.7l3.6-9.1c-0.2-0.1-0.3-0.2-0.5-0.4c-0.2-0.2-0.3-0.4-0.3-0.6
	l-9.3-24.9c-0.2-0.4-0.2-0.7-0.2-1s0.1-0.4,0.2-0.5c0.2-0.1,0.4-0.2,0.8-0.3c0.3,0,0.8-0.1,1.4-0.1s1,0,1.4,0c0.3,0,0.6,0.1,0.8,0.2
	c0.2,0.1,0.3,0.2,0.4,0.3c0.1,0.1,0.2,0.3,0.3,0.6l7.4,20.9h0.1l7.2-21c0.1-0.4,0.3-0.6,0.4-0.7c0.2-0.1,0.4-0.2,0.7-0.2
	c0.3,0,0.8-0.1,1.4-0.1c0.5,0,1,0,1.3,0.1c0.3,0,0.6,0.1,0.8,0.3c0.2,0.1,0.2,0.3,0.2,0.5s-0.1,0.5-0.2,0.9L397.3,81.9L397.3,81.9z"
	/>
<path class="st3" d="M462.2,85.2c0,0.4,0,0.8-0.1,1.1c0,0.3-0.1,0.5-0.2,0.7c-0.1,0.2-0.2,0.3-0.3,0.3c-0.1,0.1-0.2,0.1-0.3,0.1
	c-0.4,0-1-0.2-1.9-0.5c-0.9-0.3-1.8-0.8-3-1.4c-1.1-0.6-2.3-1.3-3.6-2.2c-1.3-0.9-2.5-1.9-3.7-3c-0.9,0.6-2.1,1.1-3.6,1.5
	c-1.4,0.4-3.1,0.6-5,0.6c-2.8,0-5.3-0.4-7.3-1.2c-2.1-0.8-3.8-2-5.1-3.6c-1.3-1.6-2.3-3.6-3-6c-0.7-2.4-1-5.1-1-8.2
	c0-3,0.4-5.7,1.1-8.1c0.7-2.4,1.8-4.4,3.2-6.1c1.4-1.7,3.2-3,5.4-3.9c2.1-0.9,4.6-1.4,7.5-1.4c2.7,0,5,0.4,7.1,1.2
	c2,0.8,3.7,2,5.1,3.6c1.4,1.6,2.4,3.6,3.1,5.9c0.7,2.3,1,5,1,8c0,1.6-0.1,3.1-0.3,4.5c-0.2,1.4-0.5,2.8-0.9,4.1
	c-0.4,1.3-0.9,2.5-1.5,3.5c-0.6,1.1-1.3,2.1-2.1,2.9c1.4,1.2,2.6,2.1,3.7,2.7c1.1,0.6,1.9,1.1,2.6,1.5c0.7,0.3,1.2,0.6,1.6,0.7
	c0.4,0.1,0.7,0.3,0.9,0.5c0.2,0.2,0.3,0.4,0.4,0.8C462.1,84.2,462.2,84.7,462.2,85.2z M452.3,63.1c0-2.1-0.2-4.1-0.6-5.9
	c-0.4-1.8-1-3.4-1.9-4.7c-0.9-1.3-2.1-2.4-3.5-3.1c-1.5-0.8-3.3-1.1-5.4-1.1c-2.2,0-4,0.4-5.4,1.2c-1.5,0.8-2.7,1.9-3.6,3.2
	c-0.9,1.4-1.6,2.9-2,4.7c-0.4,1.8-0.6,3.7-0.6,5.7c0,2.2,0.2,4.2,0.6,6.1s1,3.4,1.9,4.8c0.9,1.4,2,2.4,3.5,3.1
	c1.5,0.7,3.3,1.1,5.5,1.1c2.2,0,4-0.4,5.5-1.2c1.5-0.8,2.7-1.9,3.6-3.3c0.9-1.4,1.6-3,1.9-4.8C452.1,67,452.3,65.1,452.3,63.1
	L452.3,63.1z"/>
<path class="st3" d="M506.8,81.2c0,0.2,0,0.3-0.1,0.4c-0.1,0.1-0.2,0.2-0.4,0.3c-0.2,0.1-0.5,0.1-0.8,0.2c-0.3,0-0.7,0.1-1.2,0.1
	c-0.5,0-0.8,0-1.2-0.1c-0.3,0-0.6-0.1-0.8-0.2s-0.3-0.2-0.4-0.3c-0.1-0.1-0.1-0.3-0.1-0.4V48.6h-0.1l-13.2,32.8
	c-0.1,0.1-0.1,0.3-0.2,0.3c-0.1,0.1-0.3,0.2-0.5,0.2c-0.2,0.1-0.4,0.1-0.7,0.1c-0.3,0-0.6,0-1,0c-0.4,0-0.8,0-1-0.1
	c-0.3,0-0.5-0.1-0.7-0.2c-0.2-0.1-0.3-0.1-0.4-0.2c-0.1-0.1-0.2-0.2-0.2-0.3l-12.6-32.8h0v32.6c0,0.2,0,0.3-0.1,0.4
	c-0.1,0.1-0.2,0.2-0.4,0.3c-0.2,0.1-0.5,0.1-0.8,0.2c-0.3,0-0.7,0.1-1.2,0.1c-0.5,0-0.9,0-1.2-0.1s-0.6-0.1-0.8-0.2
	c-0.2-0.1-0.3-0.2-0.4-0.3c-0.1-0.1-0.1-0.3-0.1-0.4V46.7c0-0.8,0.2-1.4,0.6-1.7s0.9-0.5,1.4-0.5h3.1c0.6,0,1.2,0.1,1.6,0.2
	c0.5,0.1,0.9,0.3,1.2,0.6c0.4,0.3,0.6,0.6,0.9,1c0.2,0.4,0.4,0.8,0.6,1.4l10.7,27.1h0.1l11.1-27c0.2-0.6,0.5-1.1,0.7-1.5
	s0.5-0.7,0.8-1c0.3-0.2,0.6-0.4,1-0.5c0.4-0.1,0.8-0.2,1.3-0.2h3.2c0.3,0,0.6,0,0.8,0.1c0.3,0.1,0.5,0.2,0.7,0.4
	c0.2,0.2,0.3,0.4,0.5,0.7c0.1,0.3,0.2,0.6,0.2,1V81.2L506.8,81.2z"/>
<path class="st3" d="M541.2,81.1c0,0.2,0,0.3-0.1,0.4c-0.1,0.1-0.2,0.2-0.4,0.3c-0.2,0.1-0.5,0.1-0.8,0.2c-0.3,0-0.8,0.1-1.3,0.1
	c-0.7,0-1.2,0-1.7-0.1c-0.4-0.1-0.7-0.2-1-0.3s-0.4-0.3-0.5-0.5l-13.8-18.7v18.7c0,0.1,0,0.3-0.1,0.4c-0.1,0.1-0.2,0.2-0.4,0.3
	c-0.2,0.1-0.4,0.1-0.8,0.2s-0.7,0.1-1.2,0.1c-0.5,0-0.9,0-1.2-0.1s-0.6-0.1-0.8-0.2c-0.2-0.1-0.3-0.2-0.4-0.3
	c-0.1-0.1-0.1-0.3-0.1-0.4v-36c0-0.2,0-0.3,0.1-0.4c0.1-0.1,0.2-0.2,0.4-0.3c0.2-0.1,0.5-0.1,0.8-0.2c0.3,0,0.7-0.1,1.2-0.1
	c0.5,0,0.9,0,1.2,0.1c0.3,0,0.6,0.1,0.8,0.2c0.2,0.1,0.3,0.2,0.4,0.3c0.1,0.1,0.1,0.3,0.1,0.4v16.6L535,45.2
	c0.1-0.2,0.3-0.3,0.4-0.4c0.2-0.1,0.3-0.2,0.6-0.3c0.2-0.1,0.5-0.1,0.8-0.2c0.3,0,0.7-0.1,1.2-0.1c0.5,0,0.9,0,1.2,0.1
	c0.3,0,0.6,0.1,0.7,0.2c0.2,0.1,0.3,0.2,0.4,0.3c0.1,0.1,0.1,0.2,0.1,0.4c0,0.3-0.1,0.5-0.2,0.8c-0.1,0.3-0.4,0.6-0.7,1l-12.4,14.9
	l13.4,17.8c0.3,0.5,0.5,0.8,0.6,1C541.2,80.9,541.2,81,541.2,81.1L541.2,81.1z"/>
</svg>
